<?xml version="1.0" standalone="no"?>
<!DOCTYPE svg PUBLIC "-//W3C//DTD SVG 20010904//EN"
 "http://www.w3.org/TR/2001/REC-SVG-20010904/DTD/svg10.dtd">
<svg version="1.0" xmlns="http://www.w3.org/2000/svg"
 width="260.000000pt" height="260.000000pt" viewBox="0 0 260.000000 260.000000"
 preserveAspectRatio="xMidYMid meet">
<metadata>
Created by potrace 1.11, written by Peter Selinger 2001-2013
</metadata>
<g transform="translate(0.000000,260.000000) scale(0.100000,-0.100000)"
fill="#000000" stroke="none">
<path d="M1233 2182 c-23 -15 -45 -31 -50 -36 -9 -11 4 -3 61 32 l39 24 -5
-166 c-5 -175 -11 -201 -45 -176 -16 13 -17 12 -3 -3 10 -10 23 -14 38 -11 21
6 22 10 24 158 1 192 0 181 23 179 20 -1 20 -1 1 13 -26 19 -34 17 -83 -14z"/>
<path d="M1144 2124 c-18 -14 -18 -15 4 -4 12 6 22 13 22 15 0 8 -5 6 -26 -11z"/>
<path d="M1094 2094 c-18 -14 -18 -15 4 -4 12 6 22 13 22 15 0 8 -5 6 -26 -11z"/>
<path d="M974 2024 c-18 -14 -18 -15 4 -4 12 6 22 13 22 15 0 8 -5 6 -26 -11z"/>
<path d="M924 1995 c-10 -8 -14 -15 -8 -15 6 0 17 7 24 15 16 19 9 19 -16 0z"/>
<path d="M874 1965 c-10 -8 -14 -15 -8 -15 6 0 17 7 24 15 16 19 9 19 -16 0z"/>
<path d="M884 1926 c11 -9 31 -16 45 -15 24 1 24 2 -5 8 -17 4 -37 11 -45 15
-8 4 -5 0 5 -8z"/>
<path d="M1063 1903 c15 -2 37 -2 50 0 12 2 0 4 -28 4 -27 0 -38 -2 -22 -4z"/>
<path d="M1760 1906 c0 -3 9 -10 20 -16 11 -6 20 -8 20 -6 0 3 -9 10 -20 16
-11 6 -20 8 -20 6z"/>
<path d="M753 1892 c-9 -5 -6 -12 10 -21 19 -13 21 -12 10 1 -7 8 -10 18 -6
21 9 9 1 8 -14 -1z"/>
<path d="M1148 1893 c7 -3 16 -2 19 1 4 3 -2 6 -13 5 -11 0 -14 -3 -6 -6z"/>
<path d="M1180 1886 c0 -2 7 -7 16 -10 8 -3 12 -2 9 4 -6 10 -25 14 -25 6z"/>
<path d="M1796 1855 c-3 -8 -1 -15 4 -15 6 0 10 7 10 15 0 8 -2 15 -4 15 -2 0
-6 -7 -10 -15z"/>
<path d="M1068 1767 c12 -14 9 -19 -31 -38 l-45 -22 -38 28 -39 27 39 -35 39
-35 51 30 c28 17 53 32 54 33 2 2 -7 9 -20 16 -21 11 -22 11 -10 -4z"/>
<path d="M1693 1713 c15 -2 37 -2 50 0 12 2 0 4 -28 4 -27 0 -38 -2 -22 -4z"/>
<path d="M1793 1713 c9 -2 25 -2 35 0 9 3 1 5 -18 5 -19 0 -27 -2 -17 -5z"/>
<path d="M1638 1703 c7 -3 16 -2 19 1 4 3 -2 6 -13 5 -11 0 -14 -3 -6 -6z"/>
<path d="M2085 1697 c2 -7 -36 -41 -86 -77 -81 -59 -110 -83 -76 -64 19 11
187 136 187 139 0 2 -7 5 -14 8 -9 4 -13 1 -11 -6z"/>
<path d="M1255 1471 c-3 -6 -3 -11 2 -11 4 0 7 -74 5 -164 l-3 -165 -36 25
c-20 13 -43 24 -52 24 -9 -1 -1 -7 18 -16 19 -8 41 -20 49 -26 7 -7 21 -12 30
-13 15 -1 17 16 15 174 -2 161 -9 202 -28 172z"/>
<path d="M1183 1429 c-29 -17 -53 -33 -53 -36 0 -5 89 44 105 58 16 16 1 9
-52 -22z"/>
<path d="M1090 1375 c-14 -8 -20 -14 -14 -15 5 0 19 7 30 15 24 18 16 19 -16
0z"/>
<path d="M1034 1344 c-18 -14 -18 -15 4 -4 12 6 22 13 22 15 0 8 -5 6 -26 -11z"/>
<path d="M860 1250 c-9 -6 -10 -10 -3 -10 6 0 15 5 18 10 8 12 4 12 -15 0z"/>
<path d="M898 1203 c7 -3 16 -2 19 1 4 3 -2 6 -13 5 -11 0 -14 -3 -6 -6z"/>
<path d="M978 1193 c23 -2 61 -2 85 0 23 2 4 4 -43 4 -47 0 -66 -2 -42 -4z"/>
<path d="M734 1182 c-6 -4 3 -18 25 -37 20 -17 29 -21 21 -10 -8 11 -21 24
-29 29 -11 7 -11 10 0 17 8 5 10 9 4 9 -5 0 -15 -4 -21 -8z"/>
<path d="M1128 1183 c7 -3 16 -2 19 1 4 3 -2 6 -13 5 -11 0 -14 -3 -6 -6z"/>
<path d="M810 1107 c0 -2 19 -19 43 -37 23 -19 36 -26 28 -17 -15 19 -71 61
-71 54z"/>
<path d="M1061 1057 c2 -1 13 -9 24 -17 19 -14 19 -14 6 3 -7 9 -18 17 -24 17
-6 0 -8 -1 -6 -3z"/>
<path d="M945 996 c32 -27 50 -32 60 -16 3 6 -1 7 -9 4 -8 -3 -30 4 -48 16
l-33 22 30 -26z"/>
<path d="M1034 1004 c-18 -14 -18 -14 6 -3 31 14 36 19 24 19 -6 0 -19 -7 -30
-16z"/>
<path d="M2070 965 c-7 -8 -8 -15 -2 -15 5 0 15 7 22 15 7 8 8 15 2 15 -5 0
-15 -7 -22 -15z"/>
<path d="M1596 955 c-11 -8 -15 -15 -9 -15 6 0 16 7 23 15 16 19 11 19 -14 0z"/>
<path d="M1960 880 c-8 -5 -12 -11 -10 -14 3 -2 14 2 24 10 22 15 10 19 -14 4z"/>
<path d="M1919 843 c-13 -16 -12 -17 4 -4 16 13 21 21 13 21 -2 0 -10 -8 -17
-17z"/>
<path d="M847 516 c-229 -138 -417 -254 -417 -257 0 -7 235 -179 245 -179 4 0
135 74 290 165 156 91 286 165 289 165 3 0 134 -78 290 -174 l286 -174 129 86
c72 48 130 89 130 92 0 3 -158 105 -352 228 -194 122 -379 240 -412 261 l-61
39 -417 -252z"/>
</g>
</svg>
